<mxfile host="65bd71144e">
    <diagram id="0tsEp725kj-t5oQBbroY" name="old_reorg">
        <mxGraphModel dx="1072" dy="1725" grid="1" gridSize="10" guides="1" tooltips="1" connect="1" arrows="1" fold="1" page="1" pageScale="1" pageWidth="850" pageHeight="1100" math="0" shadow="0">
            <root>
                <mxCell id="0"/>
                <mxCell id="1" parent="0"/>
                <mxCell id="ak6tDQHbcCzLvc6vbsWF-53" value="Legend" style="swimlane;fontStyle=0;childLayout=stackLayout;horizontal=1;startSize=30;horizontalStack=0;resizeParent=1;resizeParentMax=0;resizeLast=0;collapsible=1;marginBottom=0;whiteSpace=wrap;html=1;" parent="1" vertex="1">
                    <mxGeometry x="90" width="140" height="180" as="geometry"/>
                </mxCell>
                <mxCell id="ak6tDQHbcCzLvc6vbsWF-54" value="TO REORGANISE (OK)" style="text;strokeColor=#3700CC;fillColor=#6a00ff;align=left;verticalAlign=middle;spacingLeft=4;spacingRight=4;overflow=hidden;points=[[0,0.5],[1,0.5]];portConstraint=eastwest;rotatable=0;whiteSpace=wrap;html=1;fontColor=#ffffff;" parent="ak6tDQHbcCzLvc6vbsWF-53" vertex="1">
                    <mxGeometry y="30" width="140" height="30" as="geometry"/>
                </mxCell>
                <mxCell id="ak6tDQHbcCzLvc6vbsWF-55" value="TO FINISH a lot (incl. reorg)" style="text;strokeColor=#A50040;fillColor=#d80073;align=left;verticalAlign=middle;spacingLeft=4;spacingRight=4;overflow=hidden;points=[[0,0.5],[1,0.5]];portConstraint=eastwest;rotatable=0;whiteSpace=wrap;html=1;fontColor=#ffffff;" parent="ak6tDQHbcCzLvc6vbsWF-53" vertex="1">
                    <mxGeometry y="60" width="140" height="30" as="geometry"/>
                </mxCell>
                <mxCell id="ak6tDQHbcCzLvc6vbsWF-56" value="OK (can be improved)" style="text;strokeColor=#005700;fillColor=#008a00;align=left;verticalAlign=middle;spacingLeft=4;spacingRight=4;overflow=hidden;points=[[0,0.5],[1,0.5]];portConstraint=eastwest;rotatable=0;whiteSpace=wrap;html=1;fontColor=#ffffff;" parent="ak6tDQHbcCzLvc6vbsWF-53" vertex="1">
                    <mxGeometry y="90" width="140" height="30" as="geometry"/>
                </mxCell>
                <mxCell id="ak6tDQHbcCzLvc6vbsWF-57" value="WORKING ON" style="text;strokeColor=#C73500;fillColor=#fa6800;align=left;verticalAlign=middle;spacingLeft=4;spacingRight=4;overflow=hidden;points=[[0,0.5],[1,0.5]];portConstraint=eastwest;rotatable=0;whiteSpace=wrap;html=1;fontColor=#000000;" parent="ak6tDQHbcCzLvc6vbsWF-53" vertex="1">
                    <mxGeometry y="120" width="140" height="30" as="geometry"/>
                </mxCell>
                <mxCell id="ak6tDQHbcCzLvc6vbsWF-58" value="TODO" style="text;strokeColor=#d79b00;fillColor=#ffcd28;align=left;verticalAlign=middle;spacingLeft=4;spacingRight=4;overflow=hidden;points=[[0,0.5],[1,0.5]];portConstraint=eastwest;rotatable=0;whiteSpace=wrap;html=1;gradientColor=#ffa500;" parent="ak6tDQHbcCzLvc6vbsWF-53" vertex="1">
                    <mxGeometry y="150" width="140" height="30" as="geometry"/>
                </mxCell>
                <mxCell id="ak6tDQHbcCzLvc6vbsWF-59" value="COMPASS&lt;br&gt;(comparison of assemblies)" style="swimlane;whiteSpace=wrap;html=1;fillColor=#6a00ff;fontColor=#000000;strokeColor=#3700CC;startSize=70;fontStyle=5" parent="1" vertex="1">
                    <mxGeometry x="270" y="-20" width="540" height="390" as="geometry"/>
                </mxCell>
                <mxCell id="ak6tDQHbcCzLvc6vbsWF-60" value="FILTER_CONTIGS&amp;nbsp; (SWF) -&amp;gt; move out independent" style="swimlane;whiteSpace=wrap;html=1;fillColor=#6a00ff;fontColor=#ffffff;strokeColor=#3700CC;" parent="ak6tDQHbcCzLvc6vbsWF-59" vertex="1">
                    <mxGeometry x="10" y="180" width="530" height="210" as="geometry"/>
                </mxCell>
                <mxCell id="ak6tDQHbcCzLvc6vbsWF-61" style="edgeStyle=none;html=1;entryX=0;entryY=0.5;entryDx=0;entryDy=0;exitX=1;exitY=0.5;exitDx=0;exitDy=0;" parent="ak6tDQHbcCzLvc6vbsWF-60" source="ak6tDQHbcCzLvc6vbsWF-62" target="ak6tDQHbcCzLvc6vbsWF-66" edge="1">
                    <mxGeometry relative="1" as="geometry">
                        <Array as="points"/>
                    </mxGeometry>
                </mxCell>
                <mxCell id="ak6tDQHbcCzLvc6vbsWF-62" value="&lt;div style=&quot;color: rgb(212, 212, 212); background-color: rgb(30, 30, 30); font-family: Consolas, &amp;quot;Courier New&amp;quot;, monospace; font-size: 14px; line-height: 19px;&quot;&gt;&amp;nbsp;BLAST_CONTIG&lt;/div&gt;" style="shape=process;whiteSpace=wrap;html=1;backgroundOutline=1;" parent="ak6tDQHbcCzLvc6vbsWF-60" vertex="1">
                    <mxGeometry x="25" y="150" width="175" height="40" as="geometry"/>
                </mxCell>
                <mxCell id="ak6tDQHbcCzLvc6vbsWF-63" value="" style="edgeStyle=none;html=1;" parent="ak6tDQHbcCzLvc6vbsWF-60" source="ak6tDQHbcCzLvc6vbsWF-64" target="ak6tDQHbcCzLvc6vbsWF-62" edge="1">
                    <mxGeometry relative="1" as="geometry"/>
                </mxCell>
                <mxCell id="ak6tDQHbcCzLvc6vbsWF-64" value="&lt;div style=&quot;color: rgb(212, 212, 212); background-color: rgb(30, 30, 30); font-family: Consolas, &amp;quot;Courier New&amp;quot;, monospace; font-size: 14px; line-height: 19px;&quot;&gt;SEQKIT_TOCONTIG&lt;/div&gt;" style="shape=process;whiteSpace=wrap;html=1;backgroundOutline=1;" parent="ak6tDQHbcCzLvc6vbsWF-60" vertex="1">
                    <mxGeometry x="25" y="80" width="175" height="40" as="geometry"/>
                </mxCell>
                <mxCell id="ak6tDQHbcCzLvc6vbsWF-65" style="edgeStyle=none;html=1;entryX=0.5;entryY=0;entryDx=0;entryDy=0;" parent="ak6tDQHbcCzLvc6vbsWF-60" source="ak6tDQHbcCzLvc6vbsWF-66" target="ak6tDQHbcCzLvc6vbsWF-67" edge="1">
                    <mxGeometry relative="1" as="geometry"/>
                </mxCell>
                <mxCell id="ak6tDQHbcCzLvc6vbsWF-66" value="&lt;div style=&quot;color: rgb(212, 212, 212); background-color: rgb(30, 30, 30); font-family: Consolas, &amp;quot;Courier New&amp;quot;, monospace; font-size: 14px; line-height: 19px;&quot;&gt;FILTER_BLAST_CONTIGS&lt;/div&gt;" style="shape=process;whiteSpace=wrap;html=1;backgroundOutline=1;" parent="ak6tDQHbcCzLvc6vbsWF-60" vertex="1">
                    <mxGeometry x="230" y="50" width="200" height="40" as="geometry"/>
                </mxCell>
                <mxCell id="ak6tDQHbcCzLvc6vbsWF-67" value="decontaminated assembly" style="text;html=1;strokeColor=none;fillColor=none;align=center;verticalAlign=middle;whiteSpace=wrap;rounded=0;fontStyle=1" parent="ak6tDQHbcCzLvc6vbsWF-60" vertex="1">
                    <mxGeometry x="240" y="120" width="160" height="20" as="geometry"/>
                </mxCell>
                <mxCell id="ak6tDQHbcCzLvc6vbsWF-68" style="edgeStyle=none;html=1;entryX=0.5;entryY=0;entryDx=0;entryDy=0;" parent="ak6tDQHbcCzLvc6vbsWF-60" source="ak6tDQHbcCzLvc6vbsWF-69" target="ak6tDQHbcCzLvc6vbsWF-64" edge="1">
                    <mxGeometry relative="1" as="geometry"/>
                </mxCell>
                <mxCell id="ak6tDQHbcCzLvc6vbsWF-69" value="assembly" style="text;html=1;strokeColor=none;fillColor=none;align=center;verticalAlign=middle;whiteSpace=wrap;rounded=0;fontStyle=1" parent="ak6tDQHbcCzLvc6vbsWF-60" vertex="1">
                    <mxGeometry x="32.5" y="30" width="160" height="30" as="geometry"/>
                </mxCell>
                <mxCell id="ak6tDQHbcCzLvc6vbsWF-70" value="csv input file for next" style="rounded=1;whiteSpace=wrap;html=1;fillColor=#ffcd28;gradientColor=#ffa500;strokeColor=#d79b00;" parent="ak6tDQHbcCzLvc6vbsWF-60" vertex="1">
                    <mxGeometry x="250" y="170" width="120" height="30" as="geometry"/>
                </mxCell>
                <mxCell id="ak6tDQHbcCzLvc6vbsWF-71" value="To reorganize in submodules&amp;nbsp;&lt;br&gt;(which could be renamed) and eventually split&lt;br&gt;(for test then for all ?)&amp;nbsp;" style="ellipse;shape=cloud;whiteSpace=wrap;html=1;fillColor=#d80073;fontColor=#ffffff;strokeColor=#A50040;" parent="ak6tDQHbcCzLvc6vbsWF-59" vertex="1">
                    <mxGeometry x="60" y="70" width="320" height="80" as="geometry"/>
                </mxCell>
                <mxCell id="ak6tDQHbcCzLvc6vbsWF-72" value="MAPPING (reads against own assembly)&amp;nbsp; &lt;br&gt;-&amp;gt; ? rename : QUALIMAP COVERAGE + add summary" style="swimlane;whiteSpace=wrap;html=1;fillColor=#008a00;fontColor=#ffffff;strokeColor=#005700;startSize=40;" parent="1" vertex="1">
                    <mxGeometry x="290" y="410" width="530" height="580" as="geometry"/>
                </mxCell>
                <mxCell id="ak6tDQHbcCzLvc6vbsWF-73" value="" style="edgeStyle=none;html=1;entryX=0.558;entryY=-0.033;entryDx=0;entryDy=0;entryPerimeter=0;" parent="ak6tDQHbcCzLvc6vbsWF-72" edge="1">
                    <mxGeometry relative="1" as="geometry">
                        <mxPoint x="248.02344958933463" y="85" as="sourcePoint"/>
                        <mxPoint x="100.91000000000008" y="154.00999999999976" as="targetPoint"/>
                    </mxGeometry>
                </mxCell>
                <mxCell id="ak6tDQHbcCzLvc6vbsWF-74" style="edgeStyle=none;html=1;entryX=0.5;entryY=0;entryDx=0;entryDy=0;" parent="ak6tDQHbcCzLvc6vbsWF-72" target="ak6tDQHbcCzLvc6vbsWF-84" edge="1">
                    <mxGeometry relative="1" as="geometry">
                        <mxPoint x="306.47058823529414" y="85" as="sourcePoint"/>
                    </mxGeometry>
                </mxCell>
                <mxCell id="ak6tDQHbcCzLvc6vbsWF-75" value="in: assembly, reads, type" style="text;html=1;strokeColor=none;fillColor=none;align=center;verticalAlign=middle;whiteSpace=wrap;rounded=0;fontStyle=1" parent="ak6tDQHbcCzLvc6vbsWF-72" vertex="1">
                    <mxGeometry x="200" y="60" width="160" height="30" as="geometry"/>
                </mxCell>
                <mxCell id="ak6tDQHbcCzLvc6vbsWF-76" value="" style="edgeStyle=none;html=1;" parent="ak6tDQHbcCzLvc6vbsWF-72" edge="1">
                    <mxGeometry relative="1" as="geometry">
                        <mxPoint x="92.5" y="185" as="sourcePoint"/>
                        <mxPoint x="92.5" y="205" as="targetPoint"/>
                    </mxGeometry>
                </mxCell>
                <mxCell id="ak6tDQHbcCzLvc6vbsWF-77" value="MINIMAP" style="shape=process;whiteSpace=wrap;html=1;backgroundOutline=1;" parent="ak6tDQHbcCzLvc6vbsWF-72" vertex="1">
                    <mxGeometry x="20" y="130" width="145" height="30" as="geometry"/>
                </mxCell>
                <mxCell id="ak6tDQHbcCzLvc6vbsWF-78" value="long reads &lt;br&gt;(long, hybrid)" style="text;html=1;strokeColor=none;fillColor=none;align=center;verticalAlign=middle;whiteSpace=wrap;rounded=0;fontStyle=4" parent="ak6tDQHbcCzLvc6vbsWF-72" vertex="1">
                    <mxGeometry x="20" y="80" width="140" height="30" as="geometry"/>
                </mxCell>
                <mxCell id="ak6tDQHbcCzLvc6vbsWF-79" value="short reads&amp;nbsp;&lt;br&gt;(short, hybrid)" style="text;html=1;strokeColor=none;fillColor=none;align=center;verticalAlign=middle;whiteSpace=wrap;rounded=0;fontStyle=4" parent="ak6tDQHbcCzLvc6vbsWF-72" vertex="1">
                    <mxGeometry x="370" y="105" width="120" height="30" as="geometry"/>
                </mxCell>
                <mxCell id="ak6tDQHbcCzLvc6vbsWF-80" style="edgeStyle=none;html=1;entryX=0;entryY=0.5;entryDx=0;entryDy=0;" parent="ak6tDQHbcCzLvc6vbsWF-72" target="ak6tDQHbcCzLvc6vbsWF-89" edge="1">
                    <mxGeometry relative="1" as="geometry">
                        <mxPoint x="132.1428571428571" y="235" as="sourcePoint"/>
                    </mxGeometry>
                </mxCell>
                <mxCell id="ak6tDQHbcCzLvc6vbsWF-81" style="edgeStyle=none;html=1;" parent="ak6tDQHbcCzLvc6vbsWF-72" edge="1">
                    <mxGeometry relative="1" as="geometry">
                        <mxPoint x="92.1875" y="235" as="sourcePoint"/>
                        <mxPoint x="90.3125" y="325" as="targetPoint"/>
                    </mxGeometry>
                </mxCell>
                <mxCell id="ak6tDQHbcCzLvc6vbsWF-82" value="TOBAM" style="shape=process;whiteSpace=wrap;html=1;backgroundOutline=1;" parent="ak6tDQHbcCzLvc6vbsWF-72" vertex="1">
                    <mxGeometry x="20" y="180" width="145" height="30" as="geometry"/>
                </mxCell>
                <mxCell id="ak6tDQHbcCzLvc6vbsWF-83" value="" style="edgeStyle=none;html=1;" parent="ak6tDQHbcCzLvc6vbsWF-72" source="ak6tDQHbcCzLvc6vbsWF-84" target="ak6tDQHbcCzLvc6vbsWF-87" edge="1">
                    <mxGeometry relative="1" as="geometry"/>
                </mxCell>
                <mxCell id="ak6tDQHbcCzLvc6vbsWF-84" value="BWAMEM" style="shape=process;whiteSpace=wrap;html=1;backgroundOutline=1;" parent="ak6tDQHbcCzLvc6vbsWF-72" vertex="1">
                    <mxGeometry x="360" y="155" width="140" height="30" as="geometry"/>
                </mxCell>
                <mxCell id="ak6tDQHbcCzLvc6vbsWF-85" style="edgeStyle=none;html=1;entryX=1;entryY=0.5;entryDx=0;entryDy=0;" parent="ak6tDQHbcCzLvc6vbsWF-72" source="ak6tDQHbcCzLvc6vbsWF-87" target="ak6tDQHbcCzLvc6vbsWF-89" edge="1">
                    <mxGeometry relative="1" as="geometry"/>
                </mxCell>
                <mxCell id="ak6tDQHbcCzLvc6vbsWF-86" style="edgeStyle=none;html=1;" parent="ak6tDQHbcCzLvc6vbsWF-72" source="ak6tDQHbcCzLvc6vbsWF-87" edge="1">
                    <mxGeometry relative="1" as="geometry">
                        <mxPoint x="434.375" y="325" as="targetPoint"/>
                    </mxGeometry>
                </mxCell>
                <mxCell id="ak6tDQHbcCzLvc6vbsWF-87" value="&lt;div style=&quot;color: rgb(212, 212, 212); background-color: rgb(30, 30, 30); font-family: Consolas, &amp;quot;Courier New&amp;quot;, monospace; font-size: 14px; line-height: 19px;&quot;&gt;SAMTOOLS_INDEX&lt;/div&gt;" style="shape=process;whiteSpace=wrap;html=1;backgroundOutline=1;" parent="ak6tDQHbcCzLvc6vbsWF-72" vertex="1">
                    <mxGeometry x="360" y="205" width="140" height="30" as="geometry"/>
                </mxCell>
                <mxCell id="ak6tDQHbcCzLvc6vbsWF-88" style="edgeStyle=none;html=1;entryX=0.5;entryY=0;entryDx=0;entryDy=0;" parent="ak6tDQHbcCzLvc6vbsWF-72" source="ak6tDQHbcCzLvc6vbsWF-89" target="ak6tDQHbcCzLvc6vbsWF-93" edge="1">
                    <mxGeometry relative="1" as="geometry"/>
                </mxCell>
                <mxCell id="ak6tDQHbcCzLvc6vbsWF-89" value="SAMTOOLSMERGE" style="shape=process;whiteSpace=wrap;html=1;backgroundOutline=1;" parent="ak6tDQHbcCzLvc6vbsWF-72" vertex="1">
                    <mxGeometry x="185" y="235" width="160" height="40" as="geometry"/>
                </mxCell>
                <mxCell id="ak6tDQHbcCzLvc6vbsWF-90" value="(hybrid)" style="text;html=1;strokeColor=none;fillColor=none;align=center;verticalAlign=middle;whiteSpace=wrap;rounded=0;fontStyle=4" parent="ak6tDQHbcCzLvc6vbsWF-72" vertex="1">
                    <mxGeometry x="190" y="155" width="140" height="30" as="geometry"/>
                </mxCell>
                <mxCell id="ak6tDQHbcCzLvc6vbsWF-91" value="QUALIMAPLONG" style="shape=process;whiteSpace=wrap;html=1;backgroundOutline=1;" parent="ak6tDQHbcCzLvc6vbsWF-72" vertex="1">
                    <mxGeometry x="20" y="300" width="140" height="30" as="geometry"/>
                </mxCell>
                <mxCell id="ak6tDQHbcCzLvc6vbsWF-92" style="edgeStyle=none;html=1;entryX=0.5;entryY=0;entryDx=0;entryDy=0;" parent="ak6tDQHbcCzLvc6vbsWF-72" source="ak6tDQHbcCzLvc6vbsWF-93" target="ak6tDQHbcCzLvc6vbsWF-96" edge="1">
                    <mxGeometry relative="1" as="geometry"/>
                </mxCell>
                <mxCell id="ak6tDQHbcCzLvc6vbsWF-93" value="QUALIMAP" style="shape=process;whiteSpace=wrap;html=1;backgroundOutline=1;" parent="ak6tDQHbcCzLvc6vbsWF-72" vertex="1">
                    <mxGeometry x="190" y="325" width="155" height="30" as="geometry"/>
                </mxCell>
                <mxCell id="ak6tDQHbcCzLvc6vbsWF-94" value="QUALIMAPSHORT" style="shape=process;whiteSpace=wrap;html=1;backgroundOutline=1;" parent="ak6tDQHbcCzLvc6vbsWF-72" vertex="1">
                    <mxGeometry x="360" y="325" width="150" height="30" as="geometry"/>
                </mxCell>
                <mxCell id="ak6tDQHbcCzLvc6vbsWF-95" value="" style="edgeStyle=none;html=1;fillColor=#ffcd28;gradientColor=#ffa500;strokeColor=#d79b00;" parent="ak6tDQHbcCzLvc6vbsWF-72" source="ak6tDQHbcCzLvc6vbsWF-96" edge="1">
                    <mxGeometry relative="1" as="geometry">
                        <mxPoint x="265.83333333333326" y="495" as="targetPoint"/>
                    </mxGeometry>
                </mxCell>
                <mxCell id="ak6tDQHbcCzLvc6vbsWF-96" value="MULTIQC&lt;br&gt;(qualimap summary)" style="shape=process;whiteSpace=wrap;html=1;backgroundOutline=1;" parent="ak6tDQHbcCzLvc6vbsWF-72" vertex="1">
                    <mxGeometry x="192.5" y="405" width="150" height="60" as="geometry"/>
                </mxCell>
                <mxCell id="ak6tDQHbcCzLvc6vbsWF-97" value="R/python&amp;nbsp;&lt;br&gt;Better summary qualimap" style="shape=process;whiteSpace=wrap;html=1;backgroundOutline=1;fillColor=#ffcd28;gradientColor=#ffa500;strokeColor=#d79b00;" parent="ak6tDQHbcCzLvc6vbsWF-72" vertex="1">
                    <mxGeometry x="190" y="490" width="150" height="60" as="geometry"/>
                </mxCell>
                <mxCell id="ak6tDQHbcCzLvc6vbsWF-98" value="&lt;span style=&quot;font-weight: 400;&quot;&gt;COMPLETNESS&lt;br&gt;&amp;nbsp;(create Subworflow : now is individual)&amp;nbsp;&amp;nbsp;&lt;/span&gt;" style="swimlane;whiteSpace=wrap;html=1;startSize=50;fillColor=#6a00ff;strokeColor=#3700CC;fontColor=#ffffff;" parent="1" vertex="1">
                    <mxGeometry x="290" y="1050" width="550" height="370" as="geometry"/>
                </mxCell>
                <mxCell id="ak6tDQHbcCzLvc6vbsWF-99" value="" style="edgeStyle=none;html=1;" parent="ak6tDQHbcCzLvc6vbsWF-98" source="ak6tDQHbcCzLvc6vbsWF-100" target="ak6tDQHbcCzLvc6vbsWF-102" edge="1">
                    <mxGeometry relative="1" as="geometry"/>
                </mxCell>
                <mxCell id="ak6tDQHbcCzLvc6vbsWF-100" value="cleaned assembly + set lineage markers" style="text;html=1;strokeColor=none;fillColor=none;align=center;verticalAlign=middle;whiteSpace=wrap;rounded=0;" parent="ak6tDQHbcCzLvc6vbsWF-98" vertex="1">
                    <mxGeometry x="115" y="70" width="320" height="40" as="geometry"/>
                </mxCell>
                <mxCell id="ak6tDQHbcCzLvc6vbsWF-101" value="" style="edgeStyle=none;html=1;" parent="ak6tDQHbcCzLvc6vbsWF-98" source="ak6tDQHbcCzLvc6vbsWF-102" target="ak6tDQHbcCzLvc6vbsWF-103" edge="1">
                    <mxGeometry relative="1" as="geometry"/>
                </mxCell>
                <mxCell id="ak6tDQHbcCzLvc6vbsWF-102" value="BUSCO&lt;br&gt;(per lineage, per assembly)" style="shape=process;whiteSpace=wrap;html=1;backgroundOutline=1;" parent="ak6tDQHbcCzLvc6vbsWF-98" vertex="1">
                    <mxGeometry x="160" y="150" width="235" height="60" as="geometry"/>
                </mxCell>
                <mxCell id="ak6tDQHbcCzLvc6vbsWF-103" value="BUSCO_REPORT&lt;br&gt;(summary stats - R script)" style="shape=process;whiteSpace=wrap;html=1;backgroundOutline=1;" parent="ak6tDQHbcCzLvc6vbsWF-98" vertex="1">
                    <mxGeometry x="157.5" y="270" width="235" height="60" as="geometry"/>
                </mxCell>
                <mxCell id="ak6tDQHbcCzLvc6vbsWF-104" value="ASSEMBLY STATS (Create Subworflow : now is individual)" style="swimlane;whiteSpace=wrap;html=1;fillColor=#6a00ff;fontColor=#ffffff;strokeColor=#3700CC;" parent="1" vertex="1">
                    <mxGeometry x="290" y="1470" width="550" height="340" as="geometry"/>
                </mxCell>
                <mxCell id="ak6tDQHbcCzLvc6vbsWF-105" style="edgeStyle=none;html=1;entryX=0.5;entryY=0;entryDx=0;entryDy=0;" parent="ak6tDQHbcCzLvc6vbsWF-104" source="ak6tDQHbcCzLvc6vbsWF-107" target="ak6tDQHbcCzLvc6vbsWF-108" edge="1">
                    <mxGeometry relative="1" as="geometry"/>
                </mxCell>
                <mxCell id="ak6tDQHbcCzLvc6vbsWF-106" style="edgeStyle=none;html=1;entryX=0.5;entryY=0;entryDx=0;entryDy=0;" parent="ak6tDQHbcCzLvc6vbsWF-104" source="ak6tDQHbcCzLvc6vbsWF-107" target="ak6tDQHbcCzLvc6vbsWF-109" edge="1">
                    <mxGeometry relative="1" as="geometry"/>
                </mxCell>
                <mxCell id="ak6tDQHbcCzLvc6vbsWF-107" value="cleaned assembly,&amp;nbsp; reference &lt;br&gt;(ref: external, internal assembly, or both)" style="text;html=1;strokeColor=none;fillColor=none;align=center;verticalAlign=middle;whiteSpace=wrap;rounded=0;" parent="ak6tDQHbcCzLvc6vbsWF-104" vertex="1">
                    <mxGeometry x="90" y="40" width="320" height="40" as="geometry"/>
                </mxCell>
                <mxCell id="ak6tDQHbcCzLvc6vbsWF-108" value="QUAST_ASSEMBLY&lt;br&gt;(internal ref)" style="shape=process;whiteSpace=wrap;html=1;backgroundOutline=1;" parent="ak6tDQHbcCzLvc6vbsWF-104" vertex="1">
                    <mxGeometry x="60" y="130" width="170" height="70" as="geometry"/>
                </mxCell>
                <mxCell id="ak6tDQHbcCzLvc6vbsWF-109" value="QUAST_REF&lt;br&gt;(external ref)" style="shape=process;whiteSpace=wrap;html=1;backgroundOutline=1;" parent="ak6tDQHbcCzLvc6vbsWF-104" vertex="1">
                    <mxGeometry x="300" y="130" width="170" height="70" as="geometry"/>
                </mxCell>
                <mxCell id="ak6tDQHbcCzLvc6vbsWF-110" value="Maybe other stats - eg Seqkit ?&amp;nbsp;" style="shape=process;whiteSpace=wrap;html=1;backgroundOutline=1;fillColor=#f0a30a;fontColor=#000000;strokeColor=#BD7000;" parent="ak6tDQHbcCzLvc6vbsWF-104" vertex="1">
                    <mxGeometry x="60" y="250" width="170" height="60" as="geometry"/>
                </mxCell>
                <mxCell id="ak6tDQHbcCzLvc6vbsWF-111" style="edgeStyle=none;html=1;entryX=1;entryY=0.25;entryDx=0;entryDy=0;fontColor=#FFFFFF;" parent="1" source="ak6tDQHbcCzLvc6vbsWF-112" target="ak6tDQHbcCzLvc6vbsWF-72" edge="1">
                    <mxGeometry relative="1" as="geometry"/>
                </mxCell>
                <mxCell id="ak6tDQHbcCzLvc6vbsWF-112" value="HAPLOPURGE&lt;br&gt;(ensuring assembly&amp;nbsp; reflect haploid genome)&lt;br&gt;stopping points" style="swimlane;whiteSpace=wrap;html=1;fontColor=#000000;startSize=50;fillColor=#fa6800;strokeColor=#C73500;" parent="1" vertex="1">
                    <mxGeometry x="1010" y="170" width="540" height="630" as="geometry"/>
                </mxCell>
                <mxCell id="ak6tDQHbcCzLvc6vbsWF-113" value="cleaned (deconta) assembly, reads, type ?&lt;br&gt;&amp;nbsp;(or short long)" style="text;html=1;strokeColor=none;fillColor=none;align=center;verticalAlign=middle;whiteSpace=wrap;rounded=0;fontColor=#FFFFFF;" parent="ak6tDQHbcCzLvc6vbsWF-112" vertex="1">
                    <mxGeometry x="140" y="60" width="270" height="30" as="geometry"/>
                </mxCell>
                <mxCell id="ak6tDQHbcCzLvc6vbsWF-114" value="" style="edgeStyle=none;html=1;fontColor=#FFFFFF;" parent="ak6tDQHbcCzLvc6vbsWF-112" source="ak6tDQHbcCzLvc6vbsWF-115" target="ak6tDQHbcCzLvc6vbsWF-121" edge="1">
                    <mxGeometry relative="1" as="geometry"/>
                </mxCell>
                <mxCell id="ak6tDQHbcCzLvc6vbsWF-115" value="HAPLO_MINIMAP" style="shape=process;whiteSpace=wrap;html=1;backgroundOutline=1;fontColor=#FFFFFF;" parent="ak6tDQHbcCzLvc6vbsWF-112" vertex="1">
                    <mxGeometry x="20" y="180" width="180" height="40" as="geometry"/>
                </mxCell>
                <mxCell id="ak6tDQHbcCzLvc6vbsWF-116" value="&lt;u&gt;long reads&lt;br&gt;assembly&lt;br&gt;&lt;/u&gt;" style="text;html=1;strokeColor=none;fillColor=none;align=center;verticalAlign=middle;whiteSpace=wrap;rounded=0;fontColor=#FFFFFF;" parent="ak6tDQHbcCzLvc6vbsWF-112" vertex="1">
                    <mxGeometry x="20" y="130" width="170" height="30" as="geometry"/>
                </mxCell>
                <mxCell id="ak6tDQHbcCzLvc6vbsWF-117" value="&lt;u&gt;short reads&lt;br&gt;&amp;nbsp;assembly&lt;/u&gt;" style="text;html=1;strokeColor=none;fillColor=none;align=center;verticalAlign=middle;whiteSpace=wrap;rounded=0;fontColor=#FFFFFF;" parent="ak6tDQHbcCzLvc6vbsWF-112" vertex="1">
                    <mxGeometry x="360" y="130" width="170" height="30" as="geometry"/>
                </mxCell>
                <mxCell id="ak6tDQHbcCzLvc6vbsWF-118" value="&lt;u&gt;hybrid assembly&lt;/u&gt;" style="text;html=1;strokeColor=none;fillColor=none;align=center;verticalAlign=middle;whiteSpace=wrap;rounded=0;fontColor=#FFFFFF;" parent="ak6tDQHbcCzLvc6vbsWF-112" vertex="1">
                    <mxGeometry x="200" y="130" width="170" height="30" as="geometry"/>
                </mxCell>
                <mxCell id="ak6tDQHbcCzLvc6vbsWF-119" value="see mapping workflow but with specific options for mapping&amp;nbsp;&lt;br&gt;choose which type of reads to use if&lt;br&gt;hybrid" style="shape=process;whiteSpace=wrap;html=1;backgroundOutline=1;fontColor=#000000;fillColor=#f0a30a;strokeColor=#BD7000;" parent="ak6tDQHbcCzLvc6vbsWF-112" vertex="1">
                    <mxGeometry x="240" y="180" width="270" height="100" as="geometry"/>
                </mxCell>
                <mxCell id="ak6tDQHbcCzLvc6vbsWF-120" style="edgeStyle=none;html=1;entryX=0.5;entryY=0;entryDx=0;entryDy=0;fontColor=#FFFFFF;" parent="ak6tDQHbcCzLvc6vbsWF-112" source="ak6tDQHbcCzLvc6vbsWF-121" target="ak6tDQHbcCzLvc6vbsWF-123" edge="1">
                    <mxGeometry relative="1" as="geometry"/>
                </mxCell>
                <mxCell id="ak6tDQHbcCzLvc6vbsWF-121" value="TOBAM" style="shape=process;whiteSpace=wrap;html=1;backgroundOutline=1;fontColor=#FFFFFF;" parent="ak6tDQHbcCzLvc6vbsWF-112" vertex="1">
                    <mxGeometry x="20" y="250" width="180" height="40" as="geometry"/>
                </mxCell>
                <mxCell id="ak6tDQHbcCzLvc6vbsWF-122" style="edgeStyle=none;html=1;entryX=0.5;entryY=0;entryDx=0;entryDy=0;fontColor=#FFFFFF;" parent="ak6tDQHbcCzLvc6vbsWF-112" source="ak6tDQHbcCzLvc6vbsWF-123" target="ak6tDQHbcCzLvc6vbsWF-127" edge="1">
                    <mxGeometry relative="1" as="geometry"/>
                </mxCell>
                <mxCell id="ak6tDQHbcCzLvc6vbsWF-123" value="PURGE_HIST" style="shape=process;whiteSpace=wrap;html=1;backgroundOutline=1;fontColor=#FFFFFF;" parent="ak6tDQHbcCzLvc6vbsWF-112" vertex="1">
                    <mxGeometry x="20" y="320" width="180" height="40" as="geometry"/>
                </mxCell>
                <mxCell id="ak6tDQHbcCzLvc6vbsWF-124" value="" style="endArrow=none;dashed=1;html=1;fontColor=#FFFFFF;" parent="ak6tDQHbcCzLvc6vbsWF-112" edge="1">
                    <mxGeometry width="50" height="50" relative="1" as="geometry">
                        <mxPoint x="25" y="380" as="sourcePoint"/>
                        <mxPoint x="215" y="380" as="targetPoint"/>
                    </mxGeometry>
                </mxCell>
                <mxCell id="ak6tDQHbcCzLvc6vbsWF-125" value="ctrl" style="text;html=1;strokeColor=none;fillColor=none;align=center;verticalAlign=middle;whiteSpace=wrap;rounded=0;fontColor=#FFFFFF;" parent="ak6tDQHbcCzLvc6vbsWF-112" vertex="1">
                    <mxGeometry x="220" y="365" width="60" height="30" as="geometry"/>
                </mxCell>
                <mxCell id="ak6tDQHbcCzLvc6vbsWF-126" style="edgeStyle=none;html=1;entryX=0.5;entryY=0;entryDx=0;entryDy=0;fontColor=#FFFFFF;" parent="ak6tDQHbcCzLvc6vbsWF-112" source="ak6tDQHbcCzLvc6vbsWF-127" target="ak6tDQHbcCzLvc6vbsWF-131" edge="1">
                    <mxGeometry relative="1" as="geometry"/>
                </mxCell>
                <mxCell id="ak6tDQHbcCzLvc6vbsWF-127" value="PURGE_COVERAGE" style="shape=process;whiteSpace=wrap;html=1;backgroundOutline=1;fontColor=#FFFFFF;" parent="ak6tDQHbcCzLvc6vbsWF-112" vertex="1">
                    <mxGeometry x="20" y="395" width="180" height="40" as="geometry"/>
                </mxCell>
                <mxCell id="ak6tDQHbcCzLvc6vbsWF-128" value="" style="endArrow=none;dashed=1;html=1;fontColor=#FFFFFF;" parent="ak6tDQHbcCzLvc6vbsWF-112" edge="1">
                    <mxGeometry width="50" height="50" relative="1" as="geometry">
                        <mxPoint x="25" y="450" as="sourcePoint"/>
                        <mxPoint x="215" y="450" as="targetPoint"/>
                    </mxGeometry>
                </mxCell>
                <mxCell id="ak6tDQHbcCzLvc6vbsWF-129" value="ctrl" style="text;html=1;strokeColor=none;fillColor=none;align=center;verticalAlign=middle;whiteSpace=wrap;rounded=0;fontColor=#FFFFFF;" parent="ak6tDQHbcCzLvc6vbsWF-112" vertex="1">
                    <mxGeometry x="220" y="435" width="60" height="30" as="geometry"/>
                </mxCell>
                <mxCell id="ak6tDQHbcCzLvc6vbsWF-130" style="edgeStyle=none;html=1;fontColor=#FFFFFF;entryX=0.5;entryY=0;entryDx=0;entryDy=0;" parent="ak6tDQHbcCzLvc6vbsWF-112" source="ak6tDQHbcCzLvc6vbsWF-131" target="ak6tDQHbcCzLvc6vbsWF-132" edge="1">
                    <mxGeometry relative="1" as="geometry">
                        <mxPoint x="110" y="545" as="targetPoint"/>
                    </mxGeometry>
                </mxCell>
                <mxCell id="ak6tDQHbcCzLvc6vbsWF-131" value="PURGE_HAPLOTIGS" style="shape=process;whiteSpace=wrap;html=1;backgroundOutline=1;fontColor=#FFFFFF;" parent="ak6tDQHbcCzLvc6vbsWF-112" vertex="1">
                    <mxGeometry x="20" y="465" width="180" height="40" as="geometry"/>
                </mxCell>
                <mxCell id="ak6tDQHbcCzLvc6vbsWF-132" value="HaploSembly&amp;nbsp;&lt;br&gt;(haploid assembly)" style="text;html=1;strokeColor=none;fillColor=none;align=center;verticalAlign=middle;whiteSpace=wrap;rounded=0;fontColor=#FFFFFF;" parent="ak6tDQHbcCzLvc6vbsWF-112" vertex="1">
                    <mxGeometry x="25" y="550" width="170" height="30" as="geometry"/>
                </mxCell>
                <mxCell id="ak6tDQHbcCzLvc6vbsWF-133" value="This is ment per assembly&lt;br&gt;so we need params control &lt;br&gt;per assembly&lt;br&gt;eg for rerun&lt;br&gt;cannot really be automated otherwise&lt;br&gt;?&amp;nbsp;" style="ellipse;shape=cloud;whiteSpace=wrap;html=1;fontColor=#000000;fillColor=#fa6800;strokeColor=#C73500;" parent="ak6tDQHbcCzLvc6vbsWF-112" vertex="1">
                    <mxGeometry x="260" y="360" width="260" height="170" as="geometry"/>
                </mxCell>
                <mxCell id="ak6tDQHbcCzLvc6vbsWF-134" style="edgeStyle=none;html=1;entryX=0;entryY=0.5;entryDx=0;entryDy=0;fontColor=#FFFFFF;" parent="1" source="ak6tDQHbcCzLvc6vbsWF-60" target="ak6tDQHbcCzLvc6vbsWF-112" edge="1">
                    <mxGeometry relative="1" as="geometry"/>
                </mxCell>
                <mxCell id="ak6tDQHbcCzLvc6vbsWF-135" value="Should be&amp;nbsp;&lt;br&gt;an option&amp;nbsp;&lt;br&gt;depending&lt;br&gt;on application&lt;br&gt;eg. best haploid&lt;br&gt;assembly&lt;br&gt;so split" style="ellipse;shape=cloud;whiteSpace=wrap;html=1;fontColor=#ffffff;fillColor=#d80073;strokeColor=#A50040;" parent="1" vertex="1">
                    <mxGeometry x="840" y="260" width="150" height="170" as="geometry"/>
                </mxCell>
                <mxCell id="ak6tDQHbcCzLvc6vbsWF-145" value="input" style="swimlane;fontStyle=0;childLayout=stackLayout;horizontal=1;startSize=30;horizontalStack=0;resizeParent=1;resizeParentMax=0;resizeLast=0;collapsible=1;marginBottom=0;whiteSpace=wrap;html=1;fontColor=#FFFFFF;" parent="1" vertex="1">
                    <mxGeometry x="1010" y="-70" width="530" height="210" as="geometry"/>
                </mxCell>
                <mxCell id="ak6tDQHbcCzLvc6vbsWF-146" value="ID (id of assembly)" style="text;strokeColor=none;fillColor=none;align=left;verticalAlign=middle;spacingLeft=4;spacingRight=4;overflow=hidden;points=[[0,0.5],[1,0.5]];portConstraint=eastwest;rotatable=0;whiteSpace=wrap;html=1;fontColor=#FFFFFF;" parent="ak6tDQHbcCzLvc6vbsWF-145" vertex="1">
                    <mxGeometry y="30" width="530" height="30" as="geometry"/>
                </mxCell>
                <mxCell id="ak6tDQHbcCzLvc6vbsWF-147" value="Long reads" style="text;strokeColor=none;fillColor=none;align=left;verticalAlign=middle;spacingLeft=4;spacingRight=4;overflow=hidden;points=[[0,0.5],[1,0.5]];portConstraint=eastwest;rotatable=0;whiteSpace=wrap;html=1;fontColor=#FFFFFF;" parent="ak6tDQHbcCzLvc6vbsWF-145" vertex="1">
                    <mxGeometry y="60" width="530" height="30" as="geometry"/>
                </mxCell>
                <mxCell id="ak6tDQHbcCzLvc6vbsWF-148" value="R1, R2 (short reads)" style="text;strokeColor=none;fillColor=none;align=left;verticalAlign=middle;spacingLeft=4;spacingRight=4;overflow=hidden;points=[[0,0.5],[1,0.5]];portConstraint=eastwest;rotatable=0;whiteSpace=wrap;html=1;fontColor=#FFFFFF;" parent="ak6tDQHbcCzLvc6vbsWF-145" vertex="1">
                    <mxGeometry y="90" width="530" height="30" as="geometry"/>
                </mxCell>
                <mxCell id="ak6tDQHbcCzLvc6vbsWF-149" value="params for automatic continue if know per assembly&amp;nbsp;" style="text;strokeColor=#C73500;fillColor=#fa6800;align=left;verticalAlign=middle;spacingLeft=4;spacingRight=4;overflow=hidden;points=[[0,0.5],[1,0.5]];portConstraint=eastwest;rotatable=0;whiteSpace=wrap;html=1;fontColor=#000000;" parent="ak6tDQHbcCzLvc6vbsWF-145" vertex="1">
                    <mxGeometry y="120" width="530" height="30" as="geometry"/>
                </mxCell>
                <mxCell id="ak6tDQHbcCzLvc6vbsWF-150" value="type" style="text;strokeColor=none;fillColor=none;align=left;verticalAlign=middle;spacingLeft=4;spacingRight=4;overflow=hidden;points=[[0,0.5],[1,0.5]];portConstraint=eastwest;rotatable=0;whiteSpace=wrap;html=1;fontColor=#FFFFFF;" parent="ak6tDQHbcCzLvc6vbsWF-145" vertex="1">
                    <mxGeometry y="150" width="530" height="30" as="geometry"/>
                </mxCell>
                <mxCell id="ak6tDQHbcCzLvc6vbsWF-151" value="comment" style="text;strokeColor=none;fillColor=none;align=left;verticalAlign=middle;spacingLeft=4;spacingRight=4;overflow=hidden;points=[[0,0.5],[1,0.5]];portConstraint=eastwest;rotatable=0;whiteSpace=wrap;html=1;fontColor=#FFFFFF;" parent="ak6tDQHbcCzLvc6vbsWF-145" vertex="1">
                    <mxGeometry y="180" width="530" height="30" as="geometry"/>
                </mxCell>
            </root>
        </mxGraphModel>
    </diagram>
</mxfile>